<svg xmlns="http://www.w3.org/2000/svg" viewBox="0 0 244.52 244.52"><defs><style>.cls-1{fill:#fd831e;}.cls-2{fill:#fafafa;}</style></defs><g id="Layer_2" data-name="Layer 2"><g id="Layer_1-2" data-name="Layer 1"><rect class="cls-1" width="244.52" height="244.52" rx="71.02"/><path class="cls-2" d="M109.75,41.29l-1.25.31Z"/><path class="cls-2" d="M152.93,47.78l-1,.45.5-.75Z"/><path class="cls-2" d="M106.75,41.86l-.87.29Z"/><path class="cls-2" d="M104.51,42.41l-.88.3Z"/><path class="cls-2" d="M111.45,41l-.7.18Z"/><path class="cls-2" d="M151.81,47.23l-.49-.31Z"/><path class="cls-2" d="M154.05,48.35l-.48-.31Z"/><path class="cls-2" d="M154.89,48.85l-.09.12a1.09,1.09,0,0,1-.05-.17A.16.16,0,0,1,154.89,48.85Z"/><path class="cls-2" d="M106.31,42.53s0,.13-.08.14-.1,0-.15-.06,0-.13.07-.14S106.25,42.5,106.31,42.53Z"/><path class="cls-2" d="M55.27,129.75l.18.47Z"/><path class="cls-2" d="M58.35,130.22c-.4.27-.7.56-.78.51a6.13,6.13,0,0,1-.8-.81c.17-.15.41-.47.51-.43A6.18,6.18,0,0,1,58.35,130.22Z"/><path class="cls-2" d="M144.6,160.33c-1.42-1.46-2.83-2.92-4.27-4.36-2.7-2.68-5.4-5.37-8.15-8-.67-.65-.56-1,0-1.62,4.78-4.71,9.6-9.37,14.27-14.19a31.17,31.17,0,0,0,7.52-13.3,33.72,33.72,0,0,0,.76-15.44,33.23,33.23,0,0,0-13.55-21.49,29.69,29.69,0,0,0-7.93-4.19,6.4,6.4,0,0,1-.82-.43c.1-.41.21-.82.33-1.32a4.77,4.77,0,0,1,1.59,0c.45.15.77.66,1.21,1.06a11.64,11.64,0,0,0,.7-2.3,15,15,0,0,0,0-3.91A7.51,7.51,0,0,0,135,68.65s-.06,0-.09,0c-.87.19-1.44-.4-2.08-.79a4.6,4.6,0,0,1-.59-.5l.72-.42c0,.61.28.63.77.45a2.53,2.53,0,0,1,.87,0l0,.2,1-.68a35.72,35.72,0,0,1,8.16,3.57A44.5,44.5,0,0,1,164.91,98a46.22,46.22,0,0,1,1.49,10,44.94,44.94,0,0,1-2.09,14.82,43.88,43.88,0,0,1-10.09,17.24c-2.06,2.19-4.23,4.28-6.39,6.38-.51.5-.6.8,0,1.34,1.67,1.57,3.28,3.22,4.91,4.83q-1.12,1.23-2.28,2.46l.44.7c-1.07-.57-1.69.09-2.27.74a.7.7,0,0,0,0,.68c.72.81,1.49,1.58,2.27,2.34.12.11.37.07.56.1,0-.2,0-.4,0-.6s-.19-.67-.07-.78a1.31,1.31,0,0,0,.19-1.63l.11-.09a3,3,0,0,0,.53.35,2,2,0,0,0,.56.07,1.93,1.93,0,0,0-.14-.55c-.2-.3-.55-.54-.67-.87s0-.64.07-1c.22.17.52.29.63.52.47.92,1,1,1.79.4a6.78,6.78,0,0,1,.77-.5l1.27.92a2.48,2.48,0,0,0,1,3,62.82,62.82,0,0,1,5.27,4.81c.31.29.58.64.86,1l-.25.25-6.72-6-.32.18v12.1a6.48,6.48,0,0,0-.56-.71q-3.25-3.21-6.56-6.4a7.34,7.34,0,0,0-1.12-.76l-1.08-.77A4.32,4.32,0,0,0,144.6,160.33Zm2-1.8c-1.06.95-1,1.95.22,2.68a1.29,1.29,0,0,0,1.1,0A5.46,5.46,0,0,0,149,160.1s-.06-.23-.14-.31c-.71-.74-1.42-1.47-2.16-2.18-.09-.1-.32-.05-.49-.07a1.83,1.83,0,0,0,0,.57A1.7,1.7,0,0,0,146.56,158.53Zm1.26-1.29-.21.22c.17,1.06,1.64,2.25,2.35,1.77Z"/><path class="cls-2" d="M104.81,140.29c2,1.93,4,3.83,6,5.77L131.19,166q7.63,7.47,15.28,14.92c.47.45.5.74,0,1.2q-8.73,8.57-17.44,17.16c-2.3,2.27-4.61,4.54-6.88,6.84-.44.46-.71.47-1.14.06q-8.28-8.25-16.58-16.47c-1.27-1.26-2.53-2.55-3.79-3.82.14-.28.41-.57.39-.85,0-1.06-.27-2.12-.28-3.18,0-3.23,0-6.46,0-9.69l.4,0h0l.2.2v0l.34.42.19.18c.06.14.07.32.17.42,1.51,1.56,3,3.11,4.55,4.65,1,1,2,1.92,3,2.9s1.75,1.82,2.67,2.7a2.8,2.8,0,0,0,.9.37h0l.57.56.55.56.58.57a.9.9,0,0,1,.24.12c2,1.93,3.93,3.84,5.84,5.81.5.51.8.58,1.33,0,2.66-2.66,5.36-5.29,8-7.93.4-.39.77-.8,1.18-1.23-.26-.3-.44-.54-.66-.75l-3.72-3.7-18.33-18.18c-1.58-1.57-3.1-3.18-4.65-4.77,0-1-.23-1.33-1.34-1.36h0a10.47,10.47,0,0,0-.6-1.21c-.29-.42-.85-.75-.94-1.19a17.51,17.51,0,0,1-.39-3.53,3.52,3.52,0,0,1,2-3.19,6.47,6.47,0,0,0,1.51-1.61c.09-.11,0-.37,0-.56-.2,0-.46,0-.6.09-.47.36-.86.82-1.34,1.14a6.65,6.65,0,0,1-1.26.51l-.36-.21c0-1.67,0-3.34,0-5,0-.28.33-.56.5-.84.24.22.57.38.72.65a10.07,10.07,0,0,1,.48,1.37l.3-.08-.12-1.36c.45.41.72.7,1,.92S104.44,140.06,104.81,140.29Z"/><path class="cls-2" d="M104.81,140.29c-.37-.23-.77-.44-1.13-.7s-.57-.51-1-.92l.12,1.36-.3.08a10.07,10.07,0,0,0-.48-1.37c-.15-.27-.48-.43-.72-.65-.17.28-.49.56-.5.84,0,1.67,0,3.34,0,5l.36.21a6.65,6.65,0,0,0,1.26-.51c.48-.32.87-.78,1.34-1.14.14-.11.4-.06.6-.09,0,.19.12.45,0,.56a6.47,6.47,0,0,1-1.51,1.61,3.52,3.52,0,0,0-2,3.19,17.51,17.51,0,0,0,.39,3.53c.09.44.65.77.94,1.19a10.47,10.47,0,0,1,.6,1.21,1.53,1.53,0,0,1-.3-.19c-3.79-3.77-7.55-7.56-11.38-11.29A46.83,46.83,0,0,1,82.91,132a45.35,45.35,0,0,1-2.79-39.6A40.59,40.59,0,0,1,88,79.81c1.78-1.94,3.84-3.63,5.78-5.43l.63-.52,0,0h.06l.23-.21h0l.43-.32.07,0,1,.36.28-1.18.52-.28.38-.43,1.6-.9.49-.32.7-.39.23-.17.64-.28a3.93,3.93,0,0,1-.06.69,5.77,5.77,0,0,0-.37,1.21c0,3.71,0,7.43,0,11.14l-.34.33-.43.38c-1.85,2-3.8,4-5.53,6.19A28.52,28.52,0,0,0,90,97.44a9.69,9.69,0,0,1-1.07.38c-.87.19-1.13.92-.82,2.32l.84.32c-.3,1.72-.66,3.42-.9,5.14a32.3,32.3,0,0,0,1.29,13.74,35.21,35.21,0,0,0,10.14,15.71C101.33,136.74,103.05,138.54,104.81,140.29Z"/><path class="cls-2" d="M60.84,142.4c-.89-1.77-1.81-3.53-2.65-5.32-.56-1.2-1-2.45-1.49-3.67a4.42,4.42,0,0,0-.91-2.8,1.42,1.42,0,0,1,.49.18c.54.51,1,1.08,1.61,1.56.19.16.56.1.85.15l0-.28-.5-.73a1.27,1.27,0,0,1,.12-.2c.8-.94.75-1.33-.26-2.24-.79-.7-1.07-.64-1.92.19-.18.18-.58.13-.87.19-.5-2-1.06-4-1.48-6.07a67.46,67.46,0,0,1-1.39-16.16,70.51,70.51,0,0,1,6.79-27.87c.51-1.09,1.08-2.16,1.62-3.23a.32.32,0,0,1,.14,0c1.75-.33,1.75-.33,1.74-2.14l0-.73.38-.84c2.42-3.14,4.75-6.37,7.29-9.42a59.45,59.45,0,0,1,9.93-9.08c.47-.36.91-.74,1.37-1.11a2.88,2.88,0,0,0,2.12-.91c1-.81,2.15-1.52,3.23-2.28,0,1,0,2.07,0,3.11,0,2.49,0,5,0,7.49a7.92,7.92,0,0,0,.22,1.26c-.48.38-1,.77-1.46,1.14A58.47,58.47,0,0,0,70,81a57.84,57.84,0,0,0-5.85,15.62,66.89,66.89,0,0,0-1.36,10.26,67.89,67.89,0,0,0,1.16,14.92l-1.16.77h0l-.18-.28-.21.25,0,0v.57l0,.57-.73.34c-1,.74-1,1.11.14,1.76.07,0,.19.09.2.15.25,1.25.91.75,1.54.37,0,.93-.73.81-1.29.94a12.82,12.82,0,0,0-1.47-1.39,1.14,1.14,0,0,0-1.06,0,9.82,9.82,0,0,0-1,1.6l-1.26.55c.7.61,1.17,1.07,1.68,1.46a2.2,2.2,0,0,0,.75.23,3.06,3.06,0,0,0-.28-.67c-.36-.5-1.09-.77-.9-1.58l.72-.12c.46.49.74,1,1.15,1.15s.78-.34,1.18-.54l.33-.15a31.77,31.77,0,0,0-.36,3.19c0,3.25,0,6.51-.07,9.76C61.56,141.23,62,142.22,60.84,142.4Z"/><path class="cls-2" d="M62.21,127.22c.56-.13,1.3,0,1.29-.94l.21-.75c.53,0,1.07,0,.8.82,0,.13.06.33.12.48.42,1,.87,1.92,1.27,2.89a.59.59,0,0,1-.12.51c-.67.62-.24,1.19-.06,1.84l1-1.11c.27.58.57,1.16.82,1.76a48.47,48.47,0,0,0,8.27,13.62c4,4.43,8.2,8.6,12.36,12.84,3,3,6,6,9,9l.21.2h0l.38.38h0l.2.2h0l.37.38h0l.2.2v0l.38.38h0l.2.2h0l.38.37h0l.2.19h0l.94.94h0l.2.21v0l0,.4c0,3.23,0,6.46,0,9.69,0,1.06.23,2.12.28,3.18,0,.28-.25.57-.39.85l-.29-.23-.17-.18-.39-.38-.17-.18-.23-.29-.45-.43c-1.67-1.61-3.36-3.2-5-4.82Q83.22,168.74,72.49,158.1a65.1,65.1,0,0,1-11.13-14.73c-.18-.32-.35-.65-.52-1,1.11-.18.72-1.17.73-1.71.1-3.25,0-6.51.07-9.76a31.25,31.25,0,0,1,.36-3.18Z"/><path class="cls-2" d="M182.23,142.58a.22.22,0,0,1,0,.18c-.62,0-.54.41-.52.8a.17.17,0,0,1,0,.14c-.6.44-1.2.87-1.08,1.75l-.57.91c-.15,0-.37,0-.45.11-.24.29-.43.62-.65.94l-.27-.12a5.4,5.4,0,0,0,.32-1.45c0-1.24-.25-2.48-.27-3.73,0-3.18,0-6.36,0-9.54,0-1.08.17-2.16.25-3.24.06-.86.34-1.78-.45-2.22.13-1,.24-1.9.34-2.77a10.05,10.05,0,0,1,.12-1.56,55.53,55.53,0,0,0,1.57-12.38,60.19,60.19,0,0,0-2.16-16.89c.1-.16.3-.32.3-.48,0-.93,0-1.85,0-2.77s.13-1.86.14-2.79c0-1.89,0-3.78-.1-5.68a3.31,3.31,0,0,0-.41-1c.21-.71,0-1.22-.58-1.06a1.2,1.2,0,0,1-1.49-.36c-.36-.47-.77-.9-1.08-1.4-.08-.13.05-.49.19-.64a6.69,6.69,0,0,1,.92-.71c.66.72,1.26,1.42,1.92,2.07,1,.95,1.91.8,2.75-.48l-.68-.6c-.67.44-1.26.54-1.62-.31l.6-1.74c.92,1.12,1.86,2.19,3.54,1.5A64.74,64.74,0,0,1,188.3,90.9a69.68,69.68,0,0,1,2.27,24.22,67.38,67.38,0,0,1-2.26,12.74,5.71,5.71,0,0,1-.38.84c-.16-1.29-.39-2.58-.44-3.87,0-.81-.33-1-1.07-1-1.79.15-3.58.32-5.37.36-.89,0-1.17.33-1.08,1.16.19,1.87.43,3.74.53,5.62,0,.83.35,1,1.06.93,1.82-.15,3.64-.26,5.47-.39-.55,1.35-1.1,2.7-1.62,4.07-.34.88-.55,1.81-.95,2.66-.57,1.22-1.25,2.39-1.88,3.58Z"/><path class="cls-2" d="M125.67,90.18a18.32,18.32,0,0,1,7.12,3,19.3,19.3,0,0,1,6.43,7.43,19.5,19.5,0,0,1,1.6,12.88,20.57,20.57,0,0,1-6.51,11c-2.45,2.3-4.79,4.74-7.18,7.11-.08.08-.21.09-.32.14-.07-.84-.18-1.67-.2-2.5,0-1.69,0-3.37,0-5.06,0-1.15,0-2.23,1-3,0,0,0-.16,0-.28l-.9.32a12.49,12.49,0,0,1-.11-1.25q0-12.86,0-25.73c0-1.14.09-2.27.14-3.23Z"/><path class="cls-2" d="M115.85,131.2c-2.08-2-4.15-4-6.25-6a25.36,25.36,0,0,1-5.1-6.06,19.7,19.7,0,0,1,5.07-25.27,17.52,17.52,0,0,1,6.91-3.35q0,15.52,0,31.07c0,1,0,2,1,2.52.08,0,.08.22.11.34l-.18.19-.59-.32a2.52,2.52,0,0,0-.33.81c0,1.36,0,2.72,0,4.08C116.5,129.92,116.59,130.69,115.85,131.2Zm-.56-39.8-.16-.07c0,.06-.07.12-.06.16s.1,0,.15.07S115.27,91.45,115.29,91.4Z"/><path class="cls-2" d="M179.22,75.55l-.6,1.74L177.26,76l.94-1.08-.75-.69-1,.6-1.28-1.35c-.43.68-.53,1.18,0,1.73.13.13,0,.63-.11.85a4.37,4.37,0,0,1-1,.74l-1.14-1.44a3.25,3.25,0,0,0,.39,3.31c.05,0,.1.12.14.11,1.17-.16,1.43,1,2,1.54,1.1,1.19,1.57,1.36,2.92.5a3.31,3.31,0,0,1,.41,1c.07,1.9.1,3.79.1,5.68,0,.93-.11,1.86-.14,2.79s0,1.84,0,2.77c0,.16-.2.32-.3.48-.88-2.43-1.75-4.87-2.63-7.29-.32-.89-.67-1.76-1-2.63.49-.39,1.26-.8.77-1.52a34.7,34.7,0,0,0-2.75-3.33c-.15-.17-.55-.11-.84-.15-.58-.87-1.16-1.74-1.75-2.6A60.79,60.79,0,0,0,155.8,61.34c.09-1-1.09-1.16-1.29-2a8.65,8.65,0,0,0-1.38.15h0l-.28-.21h-.06c.05-.8-.53-.56-1-.58h0l-.21-.72-.37.39-.35-.21c0-.6-.41-.66-.88-.55l-.24-.06-.24-.14v-1l-.28-.06-.42.62-.39-.12c-.12-.91-.27-1.81-.33-2.72-.1-1.27-.15-2.55-.17-3.82a1.18,1.18,0,0,1,.32-.72c.93-.94,1.89-1.85,2.83-2.77l.19,0,.49.31.62.25-.5.75,1-.45.64.26.48.31.7.45a1.09,1.09,0,0,0,.05.17l.09-.12.39.19.26,1,.86-.35c1.61,1,3.27,1.87,4.8,3a65.22,65.22,0,0,1,12.36,11.09c2.16,2.57,4.08,5.34,6.11,8a8,8,0,0,1-.57.82A2,2,0,0,0,179.22,75.55ZM155.16,52.49l.24,0c.07-.2.23-.43.2-.62s-.28-.3-.42-.45c-.1.17-.28.34-.28.5A1.81,1.81,0,0,0,155.16,52.49Zm-4.35,2.8L150.6,55c-.06,0-.18.11-.17.14a.45.45,0,0,0,.16.24S150.73,55.33,150.81,55.29Z"/><path class="cls-2" d="M115.85,131.2c.74-.51.65-1.28.64-2,0-1.36,0-2.72,0-4.08a2.52,2.52,0,0,1,.33-.81l.59.32c.18,2.22.35,4.44.59,6.66a1,1,0,0,0,.69.61,11.69,11.69,0,0,0,2-.16l4.61-.62a1.17,1.17,0,0,0,.1-.27c-.18-2.28-.36-4.57-.58-6.85a.74.74,0,0,0-.55-.43c-2.25.26-4.48.57-6.72.87,0-.12,0-.3-.11-.34-1-.57-1-1.55-1-2.52q0-15.54,0-31.07a38.29,38.29,0,0,1,4.84-.75,28,28,0,0,1,4.35.45l1.08.84c0,1-.14,2.09-.14,3.23q0,12.87,0,25.73a12.49,12.49,0,0,0,.11,1.25l.9-.32c0,.12,0,.25,0,.28-1.06.76-1.07,1.84-1,3,0,1.69,0,3.37,0,5.06,0,.83.13,1.66.2,2.5v0l-.2.24a.09.09,0,0,1,0,.13c-.75.17-1.35.5-1.46,1.37-1,1.08-2.07,2.18-3.14,3.23a.86.86,0,0,1-.8-.07c-1.16-1.13-2.28-2.31-3.41-3.47l-.21-.28,0,0-.25-.26a.23.23,0,0,1-.07-.07l-.26-.25,0,0-.25-.26a.46.46,0,0,1-.07-.07l-.27-.25,0,0-.26-.26-.06-.07-.27-.25Z"/><path class="cls-2" d="M151.13,46.88c-.94.92-1.9,1.83-2.83,2.77a1.18,1.18,0,0,0-.32.72c0,1.27.07,2.55.17,3.82.06.91.21,1.81.33,2.72a62.57,62.57,0,0,0-12-4.54,56.69,56.69,0,0,0-13.57-1.87c-2.77,0-5.54.2-8.31.31-.37-.12-.74-.23-1.1-.37s-.73-.28-.73-.43c-.07-2.23-.08-4.46-.07-6.68,0-.61.11-1.19-.57-1.53-.13-.07-.19-.26-.33-.46l1.08-.14,0-.08-1-.11c1-.16,2-.35,3-.47a54,54,0,0,1,13.8.07c3.51.51,7,1.06,10.46,1.86a66.62,66.62,0,0,1,7.6,2.46C148.23,45.47,149.67,46.22,151.13,46.88Z"/><path class="cls-2" d="M178.81,124.34c-.1.87-.21,1.75-.34,2.77.79.44.51,1.36.45,2.22-.08,1.08-.24,2.16-.25,3.24,0,3.18,0,6.36,0,9.54,0,1.25.23,2.49.27,3.73a5.4,5.4,0,0,1-.32,1.45l.27.12c.22-.32.41-.65.65-.94.08-.1.3-.08.45-.11-1,1.53-2,3.08-3.09,4.58-3.42,4.75-7.73,8.68-11.86,12.78-2.16,2.14-4.34,4.27-6.51,6.41l-.47.38-.78.82-.54.09-.55-.19v-12.1l.32-.18,6.72,6,.25-.25c-.28-.32-.55-.67-.86-1a62.82,62.82,0,0,0-5.27-4.81,2.48,2.48,0,0,1-1-3c.1,0,.24.05.3.13.52.64,1,.73,1.53,0a10.06,10.06,0,0,1,1.31-1.3c5.81-5.46,11.06-11.37,14.54-18.62,1.41-2.95,2.49-6.06,3.71-9.1C178.13,126.15,178.46,125.24,178.81,124.34Z"/><path class="cls-2" d="M100.59,82.7c0-3.71,0-7.43,0-11.14a5.77,5.77,0,0,1,.37-1.21,3.93,3.93,0,0,0,.06-.69c2.47-1,4.89-2.22,7.42-3.08A37.93,37.93,0,0,1,118,64.75,48.85,48.85,0,0,1,128,65c1.61.21,3.19.64,4.78,1l.69.3,1.18.25.7.31h.24l-1,.68,0-.2a2.53,2.53,0,0,0-.87,0c-.49.18-.78.16-.78-.56,0,0,0,.06,0,.15l.65-.16,0-.22a1.31,1.31,0,0,0-.62.23,2.79,2.79,0,0,1-.71.53,4.6,4.6,0,0,0,.59.5c.64.39,1.21,1,2.08.79,0,0,.08,0,.09,0a7.51,7.51,0,0,1,1.27,2.23,15,15,0,0,1,0,3.91,11.64,11.64,0,0,1-.7,2.3c-.44-.4-.76-.91-1.21-1.06a4.77,4.77,0,0,0-1.59,0c-.12.5-.23.91-.33,1.32l-7.19-1.56c0-2.26,0-4.53,0-6.8,0-.78-.32-1-1-.85q-2.66.41-5.32.69c-.78.09-1.18.35-1.16,1.21,0,1.93,0,3.86,0,5.78-2,.45-4.08.84-6.09,1.37a30.15,30.15,0,0,0-9,4.28C102,81.88,101.29,82.28,100.59,82.7Z"/><path class="cls-2" d="M111.87,41l1,.11,0,.08-1.08.14c.14.2.2.39.33.46.68.34.58.92.57,1.53,0,2.22,0,4.45.07,6.68,0,.15.46.31.73.43s.73.25,1.1.37l-2.49.25-1.07.29-1.75.26-1.06.31-1.37.26-.88.3-1.18.26-.69.3a62.81,62.81,0,0,0-16.81,8.38,7.92,7.92,0,0,1-.22-1.26c0-2.5,0-5,0-7.49,0-1,0-2.07,0-3.11l1.28-.33.83-1c2-.91,3.86-1.94,5.88-2.69,2.82-1.05,5.73-1.88,8.6-2.81l.88-.3,1.37-.26.87-.29,1.75-.26,1.25-.31,1-.07.7-.18Zm-3.34,9.84-.07.4.79.1,0-.28Zm2.94-.36.07.3.55-.11c0-.11-.09-.3-.12-.3A3,3,0,0,0,111.47,50.49Zm-5.16-8c-.06,0-.12-.08-.16-.06s0,.09-.07.14.12.08.15.06S106.28,42.58,106.31,42.53Z"/><path class="cls-2" d="M187,131.52c-1.83.13-3.65.24-5.47.39-.71.06-1-.1-1.06-.93-.1-1.88-.34-3.75-.53-5.62-.09-.83.19-1.14,1.08-1.16,1.79,0,3.58-.21,5.37-.36.74,0,1,.18,1.07,1,0,1.29.28,2.58.44,3.87-.26.88-.51,1.77-.76,2.66a.27.27,0,0,0-.1.11Zm-3.21-2.35c-.22.81,0,1.11.74,1.06,1.13-.08,1.64-.8,1.37-2.13,0-.18-.34-.46-.5-.44s-.56.32-.54.45C185,129,184.58,129.22,183.82,129.17Zm.34-3.54c-1.66-.18-2.33.44-2.1,1.94,0,.21.33.39.5.58a6.64,6.64,0,0,0,.57-.62c.18-.27.29-.79.47-.81C184.37,126.63,184.34,126.22,184.16,125.63Z"/><path class="cls-2" d="M117.8,75.77c0-1.92,0-3.85,0-5.78,0-.86.38-1.12,1.16-1.21q2.67-.28,5.32-.69c.72-.11,1,.07,1,.85,0,2.27,0,4.54,0,6.8-.68,0-1.36,0-2,0-1.48,0-3,.09-4.44.13A8.42,8.42,0,0,1,117.8,75.77Zm4-5.78c-1.63.07-2.52.89-2.24,2.08,0,.24.34.42.51.62.18-.21.36-.41.52-.63s.39-.85.67-.92C122,71,122,70.6,121.82,70Zm1.51,2.08c-.71-.18-1,0-1,.76a.89.89,0,0,1-.49.69c-.7.19-.77.58-.54,1.16C123.21,74.49,123.58,74,123.33,72.07Z"/><path class="cls-2" d="M179.22,75.55a2,2,0,0,1-.12-3,8,8,0,0,0,.57-.82l.85,1.37c-.25.2-.65.37-.71.61s.16.66.25,1l1-.48.43.68-.86.39.28.53,1.25.24.59,1C181.08,77.74,180.14,76.67,179.22,75.55Z"/><path class="cls-2" d="M55.27,129.75l0-.08c0-.08,0-.16,0-.24.29-.06.69,0,.87-.19.85-.83,1.13-.89,1.92-.19,1,.91,1.06,1.3.26,2.24a1.27,1.27,0,0,0-.12.2l.5.73,0,.28c-.29-.05-.66,0-.85-.15-.57-.48-1.07-1-1.61-1.56a1.42,1.42,0,0,0-.49-.18l-.34-.39Zm3.08.47a6.18,6.18,0,0,0-1.07-.73c-.1,0-.34.28-.51.43a6.13,6.13,0,0,0,.8.81C57.65,130.78,58,130.49,58.35,130.22Z"/><path class="cls-2" d="M156.19,171.23l.55.19,0,.44c-.14,0-.35.11-.41,0-2.81-2.77-5.61-5.57-8.4-8.36,0,0,0-.12,0-.18a7.34,7.34,0,0,1,1.12.76q3.31,3.18,6.56,6.4A6.48,6.48,0,0,1,156.19,171.23Z"/><path class="cls-2" d="M89,100.46l-.84-.32c-.31-1.4,0-2.13.82-2.32A9.69,9.69,0,0,0,90,97.44Z"/><path class="cls-2" d="M181.07,74.23l-1,.48c-.09-.33-.32-.69-.25-1s.46-.41.71-.61Z"/><path class="cls-2" d="M182.17,76.07l-1.25-.24-.28-.53.86-.39Z"/><path class="cls-2" d="M180.56,145.45c-.12-.88.48-1.31,1.08-1.75Z"/><path class="cls-2" d="M125.12,133.46c.11-.87.71-1.2,1.46-1.37Z"/><path class="cls-2" d="M156.4,49.68l-.86.35-.26-1Z"/><path class="cls-2" d="M182.23,142.58l.35-.75Z"/><path class="cls-2" d="M181.67,143.56c0-.39-.1-.83.52-.8Z"/><path class="cls-2" d="M156.77,171.86l0-.44.54-.09Z"/><path class="cls-2" d="M158.06,170.51l.47-.38Z"/><path class="cls-2" d="M99.82,83.41l.43-.38Z"/><path class="cls-2" d="M99,184.18l.45.43Z"/><path class="cls-2" d="M99.65,184.9l.17.18Z"/><path class="cls-2" d="M115.87,131.19l.27.25Z"/><path class="cls-2" d="M187.07,131.47a.27.27,0,0,1,.1-.11Z"/><path class="cls-2" d="M116.2,131.51l.26.26Z"/><path class="cls-2" d="M116.43,131.75l.27.25Z"/><path class="cls-2" d="M126.61,132l.2-.24Z"/><path class="cls-2" d="M116.77,132.07l.25.26Z"/><path class="cls-2" d="M100.21,185.46l.17.18Z"/><path class="cls-2" d="M117,132.31l.26.25Z"/><path class="cls-2" d="M117.56,132.87l.21.28Z"/><path class="cls-2" d="M117.33,132.63l.25.26Z"/><path class="cls-2" d="M154.87,154.57l.24.45a6.78,6.78,0,0,0-.77.5c-.77.65-1.32.52-1.79-.4-.11-.23-.41-.35-.63-.52,0,.33-.18.69-.07,1s.47.57.67.87a1.93,1.93,0,0,1,.14.55,2,2,0,0,1-.56-.07,3,3,0,0,1-.53-.35l-.22-.2.11.29a1.31,1.31,0,0,1-.19,1.63c-.12.11,0,.51.07.78s0,.4,0,.6c-.19,0-.44,0-.56-.1-.78-.76-1.55-1.53-2.27-2.34a.7.7,0,0,1,0-.68c.58-.65,1.2-1.31,2.27-.74l-.44-.7q1.15-1.23,2.28-2.46l.66.42Zm-3.79,2.77a13.91,13.91,0,0,0-1.18-.87,1.75,1.75,0,0,0-.41.45,5.91,5.91,0,0,0,.94.93S150.77,157.59,151.08,157.34Z"/><path class="cls-2" d="M146.56,158.53a1.7,1.7,0,0,1-.34-.42,1.83,1.83,0,0,1,0-.57c.17,0,.4,0,.49.07.74.71,1.45,1.44,2.16,2.18.08.08.17.27.14.31a5.46,5.46,0,0,1-1.14,1.16,1.29,1.29,0,0,1-1.1,0C145.57,160.48,145.5,159.48,146.56,158.53Zm1.63,1.57a8.37,8.37,0,0,0-1.05-.82c-.07,0-.52.42-.5.45a3.06,3.06,0,0,0,.74.82C147.47,160.61,147.79,160.33,148.19,160.1Z"/><path class="cls-2" d="M147.82,157.24l2.14,2c-.71.48-2.18-.71-2.35-1.77Z"/><path class="cls-2" d="M101.88,172.91c1,.9,2,1.78,3,2.72,2.71,2.65,5.39,5.33,8.08,8a1.26,1.26,0,0,1,.18.32,2.8,2.8,0,0,1-.9-.37c-.92-.88-1.77-1.81-2.67-2.7s-2-1.92-3-2.9c-1.53-1.54-3-3.09-4.55-4.65C102,173.23,101.94,173.05,101.88,172.91Z"/><path class="cls-2" d="M104.1,155.05l-1.34-1.36C103.87,153.72,104.14,154,104.1,155.05Z"/><path class="cls-2" d="M114.25,185.07l.58.57Z"/><path class="cls-2" d="M113.13,184l.57.56Z"/><path class="cls-2" d="M100.79,171.75l.38.38-.4,0C100.78,172,100.79,171.89,100.79,171.75Z"/><path class="cls-2" d="M101.35,172.31l.34.42Z"/><path class="cls-2" d="M101.16,172.13l.2.2Z"/><path class="cls-2" d="M95.21,73.25l1.25-.82c-.09.38-.18.77-.28,1.18Z"/><path class="cls-2" d="M93.76,74.38l.63-.52Z"/><path class="cls-2" d="M99,70.82l.49-.32Z"/><path class="cls-2" d="M97,72.15l.38-.43Z"/><path class="cls-2" d="M94.71,73.61l.43-.32Z"/><path class="cls-2" d="M100.15,70.11l.23-.17Z"/><path class="cls-2" d="M94.5,73.82l.23-.21Z"/><path class="cls-2" d="M62.21,127.22l-.21.53-.33.14c-.4.2-.87.63-1.18.54s-.69-.66-1.15-1.15l-.72.12h0a9.82,9.82,0,0,1,1-1.6,1.14,1.14,0,0,1,1.06,0A12.82,12.82,0,0,1,62.21,127.22Z"/><path class="cls-2" d="M63.71,125.53l-.21.75c-.63.38-1.29.88-1.54-.37,0-.06-.13-.11-.2-.15-1.14-.65-1.17-1-.14-1.76.35.06.91-.08.64.63,0,0,.2.09.3.14Zm-1.12.41.23-.28c-.07,0-.14-.11-.2-.1a.27.27,0,0,0-.18.15S62.51,125.83,62.59,125.94Z"/><path class="cls-2" d="M61,76.07l1.71-2.87,0,.73C62.76,75.74,62.76,75.74,61,76.07Z"/><path class="cls-2" d="M58.62,127.4c-.19.81.54,1.08.9,1.58a3.06,3.06,0,0,1,.28.67,2.2,2.2,0,0,1-.75-.23c-.51-.39-1-.85-1.68-1.46l1.26-.55Z"/><path class="cls-2" d="M64.53,124c-.37.22-1-.17-1-.68a1.29,1.29,0,0,1,.1-.42l-.86-.39,1.16-.77.15,0c.06.38.13.75.19,1.12,0,0,0,.06,0,.08s0,.09,0,.13l0,0Z"/><path class="cls-2" d="M62.35,123.66l.4.21-.19.9c-.1,0-.3-.13-.3-.14.27-.71-.29-.57-.64-.63Z"/><path class="cls-2" d="M62.32,122.52c0,.19,0,.38,0,.57C62.33,122.9,62.32,122.71,62.32,122.52Z"/><path class="cls-2" d="M62.75,122.52l-.39,0,.21-.25Z"/><path class="cls-2" d="M62.56,124.77l.19-.9a5.81,5.81,0,0,0,.78.55c.41.22.84.39,1.26.57l.07.33.18.39c0,.12,0,.23.07.35l.18.47c.47,1.48.95,2.95,1.42,4.43l-1,1.11c-.18-.65-.61-1.22.06-1.84a.59.59,0,0,0,.12-.51c-.4-1-.85-1.92-1.27-2.89-.06-.15-.16-.35-.12-.48.27-.82-.27-.81-.8-.82Z"/><path class="cls-2" d="M99.67,170.63l.94.94Z"/><path class="cls-2" d="M97.41,168.39c.13.12.26.25.38.38C97.67,168.64,97.54,168.51,97.41,168.39Z"/><path class="cls-2" d="M98,169l.37.38Z"/><path class="cls-2" d="M98.54,169.51c.12.13.25.26.38.38C98.79,169.77,98.66,169.64,98.54,169.51Z"/><path class="cls-2" d="M99.1,170.08l.38.37Z"/><path class="cls-2" d="M99.47,170.45l.2.19Z"/><path class="cls-2" d="M100.6,171.56l.2.21Z"/><path class="cls-2" d="M98.9,169.89l.2.2Z"/><path class="cls-2" d="M98.34,169.33l.2.2Z"/><path class="cls-2" d="M97.78,168.76l.2.2Z"/><path class="cls-2" d="M97.21,168.2l.21.2Z"/><path class="cls-2" d="M178.29,80.78c-1.35.86-1.82.69-2.92-.5-.54-.59-.8-1.7-2-1.54,0,0-.09-.07-.14-.11a3.25,3.25,0,0,1-.39-3.31L174,76.76a4.37,4.37,0,0,0,1-.74c.16-.22.24-.72.11-.85-.52-.55-.42-1,0-1.73l1.28,1.35,1-.6.75.69L177.26,76l1.36,1.33c.36.85.95.75,1.62.31l.68.6c-.84,1.28-1.79,1.43-2.75.48-.66-.65-1.26-1.35-1.92-2.07a6.69,6.69,0,0,0-.92.71c-.14.15-.27.51-.19.64.31.5.72.93,1.08,1.4a1.2,1.2,0,0,0,1.49.36C178.24,79.56,178.5,80.07,178.29,80.78Z"/><path class="cls-2" d="M117.61,124.41c2.24-.3,4.47-.61,6.72-.87a.74.74,0,0,1,.55.43c.22,2.28.4,4.57.58,6.85a1.17,1.17,0,0,1-.1.27l-4.61.62a11.69,11.69,0,0,1-2,.16,1,1,0,0,1-.69-.61c-.24-2.22-.41-4.44-.59-6.66Zm2,3.67c.46.06,1,.16.93-.57a.88.88,0,0,1,.77-1c.17,0,.32-.45.32-.7s-.39-.33-.59-.32C119.83,125.56,119,126.36,119.63,128.08Zm4,.22c-.22-.29-.41-.78-.67-.83-.63-.12-.65.41-.6.87s-.34.52-.7.65c-.2.07-.37.43-.41.68s.27.42.43.43C122.69,130.2,123.42,129.49,123.59,128.3Z"/><path class="cls-2" d="M115.29,91.4l-.07.16s-.13,0-.15-.07,0-.1.06-.16Z"/><path class="cls-2" d="M174.7,83.59l-2.82-5c.29,0,.69,0,.84.15a34.7,34.7,0,0,1,2.75,3.33C176,82.79,175.19,83.2,174.7,83.59Z"/><path class="cls-2" d="M155.8,61.34l-.94-.68-.29-.27-1.44-.89a8.65,8.65,0,0,1,1.38-.15C154.71,60.18,155.89,60.36,155.8,61.34Z"/><path class="cls-2" d="M155.16,52.49a1.81,1.81,0,0,1-.26-.59c0-.16.18-.33.28-.5.14.15.39.28.42.45s-.13.42-.2.62Z"/><path class="cls-2" d="M149.57,57.44l-.7-.41.42-.62.28.06Z"/><path class="cls-2" d="M151.87,58.71l-.58-.33.37-.39Z"/><path class="cls-2" d="M152.82,59.28l-1-.58C152.29,58.72,152.87,58.48,152.82,59.28Z"/><path class="cls-2" d="M150.94,58.17l-.88-.55C150.53,57.51,150.91,57.57,150.94,58.17Z"/><path class="cls-2" d="M150.81,55.29c-.08,0-.19.13-.22.11a.45.45,0,0,1-.16-.24s.11-.09.17-.14Z"/><path class="cls-2" d="M153.16,59.49l-.28-.21Z"/><path class="cls-2" d="M149.82,57.56l-.24-.14Z"/><path class="cls-2" d="M133,66.69l.62-.11,0,.22L133,67Z"/><path class="cls-2" d="M134.65,66.56l.7.31Z"/><path class="cls-2" d="M132.78,66l.69.3Z"/><path class="cls-2" d="M108.53,50.85l.77.22,0,.28-.79-.1Z"/><path class="cls-2" d="M109.31,51.61l-1.06.31Z"/><path class="cls-2" d="M111.47,50.49a3,3,0,0,1,.5-.11s.08.19.12.3l-.55.11Z"/><path class="cls-2" d="M112.13,51.06l-1.07.29Z"/><path class="cls-2" d="M106.88,52.18l-.88.3Z"/><path class="cls-2" d="M104.82,52.74l-.69.3Z"/><path class="cls-2" d="M183.82,129.17c.76.05,1.2-.2,1.07-1.06,0-.13.34-.43.54-.45s.46.26.5.44c.27,1.33-.24,2.05-1.37,2.13C183.82,130.28,183.6,130,183.82,129.17Z"/><path class="cls-2" d="M184.16,125.63c.18.59.21,1-.56,1.09-.18,0-.29.54-.47.81a6.64,6.64,0,0,1-.57.62c-.17-.19-.47-.37-.5-.58C181.83,126.07,182.5,125.45,184.16,125.63Z"/><path class="cls-2" d="M121.82,70c.18.61.17,1-.54,1.15-.28.07-.44.61-.67.92s-.34.42-.52.63c-.17-.2-.46-.38-.51-.62C119.3,70.88,120.19,70.06,121.82,70Z"/><path class="cls-2" d="M123.33,72.07c.25,2-.12,2.42-2.07,2.61-.23-.58-.16-1,.54-1.16a.89.89,0,0,0,.49-.69C122.3,72.09,122.62,71.89,123.33,72.07Z"/><path class="cls-2" d="M65.29,126.53l-.18-.47Z"/><path class="cls-2" d="M65,125.71l-.18-.39Z"/><path class="cls-2" d="M154.57,60.39l.29.27Z"/><path class="cls-2" d="M151.08,157.34c-.31.25-.61.54-.65.51a5.91,5.91,0,0,1-.94-.93,1.75,1.75,0,0,1,.41-.45A13.91,13.91,0,0,1,151.08,157.34Z"/><path class="cls-2" d="M151.46,156.66l-.11-.29.22.2Z"/><path class="cls-2" d="M148.19,160.1c-.4.23-.72.51-.81.45a3.06,3.06,0,0,1-.74-.82s.43-.49.5-.45A8.37,8.37,0,0,1,148.19,160.1Z"/><path class="cls-2" d="M62.59,125.94c-.08-.11-.16-.19-.15-.23a.27.27,0,0,1,.18-.15c.06,0,.13.07.2.1Z"/><path class="cls-2" d="M119.63,128.08c-.68-1.72.2-2.52,1.43-2.63.2,0,.59.21.59.32s-.15.65-.32.7a.88.88,0,0,0-.77,1C120.61,128.24,120.09,128.14,119.63,128.08Z"/><path class="cls-2" d="M123.59,128.3c-.17,1.19-.9,1.9-2,1.8-.16,0-.45-.31-.43-.43s.21-.61.41-.68c.36-.13.76-.1.7-.65s0-1,.6-.87C123.18,127.52,123.37,128,123.59,128.3Z"/><path class="cls-2" d="M64.53,124l.58,2.11L62.93,125l-1.38-3s1.24-.46,1.35-.46"/><polyline class="cls-2" points="57.06 134.31 55.33 129.43 63.07 132.21 62.55 135.12"/><polyline class="cls-2" points="144.46 160.18 148.62 164.2 152.68 161.63 144.22 156.37"/><polyline class="cls-2" points="154.01 153.72 158.11 157.24 152.68 159.82 150.11 154.49"/><polyline class="cls-2" points="178.86 123.18 176.61 130.02 181.79 130.84 184.53 122.01"/></g></g></svg>